<?xml version="1.0" encoding="utf-8"?>
<!-- Generator: Adobe Illustrator 22.0.1, SVG Export Plug-In . SVG Version: 6.00 Build 0)  -->
<svg version="1.1" id="Layer_1" xmlns="http://www.w3.org/2000/svg" xmlns:xlink="http://www.w3.org/1999/xlink" x="0px" y="0px"
	 viewBox="0 0 1000 1000" style="enable-background:new 0 0 1000 1000;" xml:space="preserve">
<style type="text/css">
	.st0{fill:#FFFFFF;stroke:#231F20;stroke-miterlimit:10;}
	.st1{display:none;fill:#007DDC;}
	.st2{display:none;fill:#F3A396;}
	.st3{display:none;fill:#1A1A1A;}
	.st4{fill:#1A1A1A;}
	.st5{fill:#F3A396;}
	.st6{fill:none;stroke:#D26665;stroke-width:0.4968;stroke-linecap:round;stroke-linejoin:round;stroke-miterlimit:10;}
	.st7{fill:#FFFFFF;}
	.st8{fill:none;stroke:#D26665;stroke-width:0.4805;stroke-linecap:round;stroke-linejoin:round;stroke-miterlimit:10;}
</style>
<path class="st0" d="M981.7,495c0,145.5-64.1,276.1-165.5,365.1h0c-59.8,52.4-132.5,90.4-212.8,108.5
	c-34.4,7.8-70.3,11.8-107.1,11.8c-43.8,0-86.2-5.8-126.5-16.6c-72.7-19.6-138.7-55.6-193.7-103.9C74.8,770.9,10.8,640.5,10.8,495
	C10.8,226.9,228.2,9.6,496.3,9.6C764.4,9.6,981.7,226.9,981.7,495z"/>
<g id="illustration">
	<path class="st1" d="M627.1,870.8c-23.1,17-68.6,43.8-127.1,46.1c-51.1,1.7-92.9-18.7-118-35.1c0,0,0,0,0,0c-5.4-3.3-10.8-7-16-11
		H627.1z"/>
	<path class="st2" d="M643.3,846v24.8h-16.1c-23.1,17-68.6,43.8-127.1,46.1c-51.1,1.7-92.9-18.7-118-35.1c0,0,0,0,0,0
		c-5.4-3.3-10.8-7-16-11h-9.9V846H643.3z"/>
	<path class="st3" d="M643.9,857.1c-0.1,0.1-0.3,0.3-0.7,0.6c-1.8,1.7-7.4,6.7-16.1,13.1c-23.1,17-68.6,43.8-127.1,46.1
		c-51.1,1.7-92.9-18.7-118-35.1c0,0,0,0,0,0c-6.1-4-11.3-7.8-15.3-11c-6.6-5.2-10.3-8.7-10.5-8.9c0.3,0.2,5.2,3.8,13.8,8.9
		c23,13.7,72.3,38.2,131,38.5c0.4,0,0.8,0,1.1,0c21.4,0,41.4-3.6,59.1-8.9c0.1,0,0.1,0,0.2-0.1c26-7.8,47.2-19.2,61.7-28.4
		c0.7-0.4,1.3-0.8,2-1.3c9.8-6.4,16.2-11.5,18.2-13.2C643.6,857.4,643.8,857.2,643.9,857.1z"/>
	<path class="st4" d="M794.7,281.5c-14.5-53-48.9-128.1-172.1-183.8c-203.1-92.3-340.1,104-340.1,104c-54.4-5.5-84,15.1-96.4,64.7
		c-10.3,42,3.4,124.6,11,155.6l40.6,214.1L277,446c38.6-125.3,96.4-176.2,96.4-176.2l185.2-14.5l196.9,362.8L794,403.4
		c4.8-27.5,6.9-55.1,5.5-82.6C798.8,304.9,797.5,291.1,794.7,281.5z"/>
	<path class="st5" d="M751.3,574.1c0,0,24.1-38.6,74.4-19.3c49.6,18.6,27.5,139.8-47.5,155.6c0,0-26.9,5.5-47.5-12.4
		C730,697.3,748.6,607.8,751.3,574.1z"/>
	<path class="st6" d="M815.4,597.5c0,0-42-13.8-71.6,47.5"/>
	<path class="st6" d="M764.4,614.7c0,0,45.4,24.1,15.1,60.6"/>
	<path class="st5" d="M241.2,574.1c0,0-24.1-38.6-74.4-19.3c-49.6,18.6-27.5,139.8,47.5,155.6c0,0,26.9,5.5,47.5-12.4
		C262.5,697.3,243.9,607.8,241.2,574.1z"/>
	<path class="st6" d="M177.2,597.5c0,0,42-13.8,71.6,47.5"/>
	<path class="st6" d="M228.1,614.7c0,0-45.4,24.1-15.1,60.6"/>
	<path class="st5" d="M756.2,459.1c0,32.6-1.4,81.1-6.9,133c-0.4,4-0.9,8-1.4,12c-3.8,31.5-9.1,63.9-16.7,94.3
		c-7,28.2-16,54.7-27.3,77.4c-16.2,32.9-36.5,59.9-60.6,80.8c-5.9,5.1-12,9.8-18.3,14.2c-0.6,0.4-1.2,0.8-1.8,1.3
		c-18.7,12.6-39.3,22.1-61.7,28.4c-0.1,0-0.1,0-0.2,0.1c-18.8,5.2-38.9,8.2-60.2,8.9c-0.1,0-0.2,0-0.2,0
		c-44.8,1.4-84-6.4-118.7-27.6c0,0,0,0,0,0c-5.4-3.3-10.8-7-16-11c-3.3-2.5-6.6-5.3-9.9-8.1c-25.6-22.4-48.6-53.9-69.5-96.6
		c-10.1-20.4-18.2-43.8-24.8-68.4c-8.1-30.3-13.8-62.4-17.7-92.8c-1.4-10.9-2.6-21.6-3.6-31.9c-6.2-63.2-5.5-112.6-5.5-112.6
		s0-11.9,2.5-30.7c5-37.4,20-101.8,64.9-153c0,0,0,0,0,0c38-43.3,97.3-77.1,190-77.1c151.4,0,216,80.5,243.4,151.8
		C757.8,408.2,756.2,459.1,756.2,459.1z"/>
	<path class="st4" d="M732.8,232.6c-6.9,2.1-223.1-57.8-223.1-57.8l-190,57.8l0,0C152.4,278.1,226,436.4,226,436.4
		c68.8-35.1,64-107.4,76.4-159.7c30.3,39.9,146.6,112.9,290.5,110.2c146.6-2.8,163.2-59.9,163.2-59.9S739.6,229.9,732.8,232.6z"/>
	<path class="st6" d="M477.3,498.8v116.4c0,2.8,0.7,4.8,1.4,7.6c3.4,9,13.8,13.1,23.4,11l20-5.5"/>
	<path class="st4" d="M401.6,539.7c0,13.8-11,24.1-24.1,24.1c-13.8,0-24.1-11-24.1-24.1c0-13.1,11-24.1,24.1-24.1
		S401.6,526.6,401.6,539.7z"/>
	<path class="st4" d="M426.4,481.2l0.7-46.1l-86.1,1.4c-11,0-21.3,4.1-29.6,11l-49.6,41.3l72.3-11L426.4,481.2z"/>
	<path class="st4" d="M575.1,539.7c0,13.8,11,24.1,24.1,24.1c13.1,0,24.1-11,24.1-24.1c0-13.1-11-24.1-24.1-24.1
		S575.1,526.6,575.1,539.7z"/>
	<path class="st4" d="M550.3,481.2l-0.7-46.1l86.1,1.4c11,0,21.3,4.1,29.6,11l49.6,41.3l-72.3-11L550.3,481.2z"/>
	<path class="st7" d="M413.3,733.8h157c0,0-27.5,42-85.4,38.6C427.1,769.6,413.3,733.8,413.3,733.8z"/>
	<path class="st8" d="M458.1,789.6c0,0,28.2,9,63.3,0"/>
	<path class="st4" d="M524.8,677.8c6.9,4.8,15.1,9,23.4,12.4c8.3,3.4,16.5,6.2,25.5,8.3c9,2.1,17.9,2.8,26.9,3.4
		c9,0,17.9-1.4,26.9-2.8l0,0c1.4,0,2.8,0.7,2.8,2.1c0,1.4-0.7,2.1-1.4,2.8c-9,2.1-18.6,4.1-28.2,4.8c-9.6,0.7-19.3,0-28.2-1.4
		c-9.6-1.4-18.6-4.1-27.5-6.9c-9-3.4-17.2-6.9-26.2-12.4c-2.8-1.4-3.4-4.8-2.1-7.6C518,676.4,521.4,675.7,524.8,677.8
		C524.1,677.1,524.8,677.1,524.8,677.8L524.8,677.8z"/>
	<path class="st4" d="M469.1,686.7c-9,5.5-17.2,9-26.2,12.4c-9,3.4-17.9,5.5-27.5,6.9c-9.6,1.4-18.6,2.1-28.2,1.4
		c-9.6,0-18.6-2.1-28.2-4.8c-1.4,0-2.1-1.4-1.4-2.8c0-1.4,1.4-2.1,2.8-1.4l0,0c9,2.1,17.9,3.4,26.9,2.8c9,0,17.9-1.4,26.9-3.4
		c9-2.1,17.2-4.8,25.5-8.3c8.3-3.4,16.5-7.6,23.4-12.4l0,0c2.8-2.1,6.2-1.4,7.6,1.4C472.5,681.2,471.8,684.7,469.1,686.7
		L469.1,686.7z"/>
</g>
</svg>
