<?xml version="1.0" encoding="utf-8"?>
<!-- Generator: Adobe Illustrator 22.0.1, SVG Export Plug-In . SVG Version: 6.00 Build 0)  -->
<svg version="1.1" id="Layer_1" xmlns="http://www.w3.org/2000/svg" xmlns:xlink="http://www.w3.org/1999/xlink" x="0px" y="0px"
	 viewBox="0 0 1000 1000" style="enable-background:new 0 0 1000 1000;" xml:space="preserve">
<style type="text/css">
	.st0{fill:#04162E;}
	.st1{fill:#CECECE;}
	.st2{fill:#1A1A1A;}
	.st3{fill:#878787;}
	.st4{fill:none;stroke:#FFFFFF;stroke-width:0.4606;stroke-linecap:round;stroke-linejoin:round;stroke-miterlimit:10;}
	.st5{fill:#007DDC;}
	.st6{fill:none;stroke:#005F99;stroke-width:0.7186;stroke-miterlimit:10;}
	.st7{fill:#289DE5;}
	.st8{fill:#F3A396;}
	.st9{fill:none;stroke:#D26665;stroke-width:0.4968;stroke-linecap:round;stroke-linejoin:round;stroke-miterlimit:10;}
	.st10{fill:none;stroke:#D26665;stroke-width:0.4805;stroke-linecap:round;stroke-linejoin:round;stroke-miterlimit:10;}
	.st11{fill:#FFFFFF;}
	.st12{fill:none;stroke:#000000;stroke-miterlimit:10;}
</style>
<g id="illustration">
	<polygon class="st0" points="570.4,529.3 427.4,529.3 432.1,456.8 564.2,456.8 	"/>
	<path class="st0" d="M427.4,528.5L423.1,696c-0.5,15.1,11.6,27.7,26.8,27.7l0,0c13.7,0,25.2-10.4,26.6-24L493.4,533
		c2-19.5-13.3-36.5-32.9-36.5l0,0C442.6,496.5,428,510.6,427.4,528.5z"/>
	<polygon class="st1" points="421.3,917.1 424.7,861.9 450.5,862 447.2,917.1 	"/>
	<path class="st2" d="M419.3,917.1L387,934.7l-18.2,3.5c-8.3,1.6-14.6,8.6-15.4,17l-0.4,4l97.9,0.4l0.2-42.4L419.3,917.1z"/>
	<polyline class="st3" points="451.4,960.3 352.7,959.9 352.8,951.1 451.5,951.6 451.4,960.3 	"/>
	<path class="st4" d="M405.6,925.4c0,0,15.5-13,21.2-7.6C434.9,925.5,419,930.1,405.6,925.4z"/>
	<path class="st4" d="M405.8,925.5c0,0,6.1-19.3-1-22.5C394.5,898.4,396.3,914.8,405.8,925.5z"/>
	<path class="st0" d="M476.5,700.6l-21.3,194h-37.8l5.8-197.8c0.4-15,13.1-26.6,28-25.9l0,0C466.7,671.6,478.2,685.2,476.5,700.6z"
		/>
	<polygon class="st1" points="574.6,917.1 571.2,861.9 545.4,862 548.7,917.1 	"/>
	<path class="st2" d="M576.5,917.1l32.3,17.6l18.2,3.5c8.3,1.6,14.6,8.6,15.4,17l0.4,4l-97.9,0.4l-0.2-42.4L576.5,917.1z"/>
	<polyline class="st3" points="544.4,960.3 643.1,959.9 643.1,951.1 544.4,951.6 544.4,960.3 	"/>
	<path class="st4" d="M590.3,925.4c0,0-15.5-13-21.2-7.6C561,925.5,576.8,930.1,590.3,925.4z"/>
	<path class="st4" d="M590.1,925.5c0,0-6.1-19.3,1-22.5C601.3,898.4,599.6,914.8,590.1,925.5z"/>
	<path class="st0" d="M570.2,528.5l4.3,167.5c0.5,15.1-11.6,27.7-26.8,27.7l0,0c-13.7,0-25.2-10.4-26.6-24L504.2,533
		c-2-19.5,13.3-36.5,32.9-36.5l0,0C555,496.5,569.6,510.6,570.2,528.5z"/>
	<path class="st0" d="M521.1,700.6l21.3,194h37.8l-5.8-197.8c-0.4-15-13.1-26.6-28-25.9l0,0C531,671.6,519.4,685.2,521.1,700.6z"/>
	<path class="st5" d="M451.1,254.6c-1,0-2,0.2-2.9,0.6c-15.6,7.3-25.3,23.4-24.4,40.7l8.1,155.5c0.2,3,2.6,5.4,5.7,5.4h60.6h61.3
		c3,0,5.5-2.4,5.7-5.4L573,296c0.9-17.3-8.8-33.4-24.4-40.8c-0.9-0.4-1.9-0.6-2.9-0.6L451.1,254.6z"/>
	<line class="st6" x1="499.4" y1="277.9" x2="499.4" y2="457.2"/>
	<path class="st7" d="M494.6,297.5c0,1.6-1.3,2.8-2.8,2.8c-1.6,0-2.8-1.3-2.8-2.8c0-1.6,1.3-2.8,2.8-2.8
		C493.3,294.7,494.6,296,494.6,297.5z"/>
	<path class="st7" d="M494.6,330.9c0,1.6-1.3,2.8-2.8,2.8c-1.6,0-2.8-1.3-2.8-2.8c0-1.6,1.3-2.8,2.8-2.8
		C493.3,328.1,494.6,329.3,494.6,330.9z"/>
	<path class="st7" d="M494.6,364.3c0,1.6-1.3,2.8-2.8,2.8c-1.6,0-2.8-1.3-2.8-2.8c0-1.6,1.3-2.8,2.8-2.8
		C493.3,361.4,494.6,362.7,494.6,364.3z"/>
	<path class="st7" d="M494.6,397.6c0,1.6-1.3,2.8-2.8,2.8c-1.6,0-2.8-1.3-2.8-2.8c0-1.6,1.3-2.8,2.8-2.8
		C493.3,394.8,494.6,396.1,494.6,397.6z"/>
	<path class="st7" d="M494.6,431c0,1.6-1.3,2.8-2.8,2.8c-1.6,0-2.8-1.3-2.8-2.8c0-1.6,1.3-2.8,2.8-2.8
		C493.3,428.2,494.6,429.4,494.6,431z"/>
	<path class="st5" d="M428.9,250.4c-34.7,1.4-112.8,1.6-152,1.6c-13.1,0-23.9,10.3-24.5,23.5l0,0c-0.6,13.9,10.5,25.5,24.4,25.6
		l153.7,0.7c14.8-0.3,26.3-13,25.1-27.8l0,0C454.4,260.3,442.6,249.9,428.9,250.4z"/>
	<path class="st8" d="M121,275.8L121,275.8c-0.2-6.3,4.7-11.6,11.1-11.9l28.6-0.8c6.3-0.2,11.6,4.7,11.9,11.1l0,0
		c0.2,6.3-4.7,11.6-11.1,11.9l-28.6,0.8C126.6,287.1,121.3,282.1,121,275.8z"/>
	<path class="st8" d="M127.7,293.7c5.1-3.6,6.2-7,6.2-7l0,0c5.5-0.1,9.8-4.7,9.4-10.2l-0.3-3.9c-0.3-5.1-4.6-9-9.6-8.9h-0.3
		c0,0-14-3.8-31.4-1.3c-22.4,3.3-31.3,15.3-29.7,22.1c1.5,6.5,28,3.9,37.9,3.1l-8.7,6.4c-1.1,0.8-1.6,2.2-1.1,3.5
		c0.5,1.4,1.9,2.3,3.3,2.1l11.6-1.3C119.6,297.9,124,296.4,127.7,293.7z"/>
	<path class="st5" d="M277,251.9l-132-0.4l-1.5,49.4l134.9,0.3c14.2-0.3,25.2-12.5,24-26.6l0,0C301.4,261.4,290.2,251.4,277,251.9z"
		/>
	<path class="st5" d="M571,248.6c34.7,1.2,112.8,1.1,152,1c13.1,0,24,10.2,24.6,23.4l0,0c0.7,13.9-10.4,25.6-24.3,25.7L569.7,300
		c-14.8-0.3-26.3-12.9-25.2-27.7l0,0C545.5,258.6,557.2,248.1,571,248.6z"/>
	<path class="st8" d="M878.9,272.7L878.9,272.7c0.2-6.3-4.8-11.6-11.1-11.8l-28.6-0.7c-6.3-0.2-11.6,4.8-11.8,11.1l0,0
		c-0.2,6.3,4.8,11.6,11.1,11.8l28.6,0.7C873.5,284,878.7,279.1,878.9,272.7z"/>
	<path class="st5" d="M722.9,249.5l131.9-1l1.7,49.4l-134.9,0.8c-14.2-0.2-25.2-12.4-24.1-26.5l0,0
		C698.5,259.1,709.7,249,722.9,249.5z"/>
	<path class="st8" d="M872.3,290.7c-5.1-3.6-6.2-7-6.2-7l0,0c-5.5,0-9.8-4.7-9.4-10.1l0.2-3.9c0.3-5.1,4.5-9,9.6-8.9h0.3
		c0,0,14-3.9,31.3-1.4c22.4,3.2,31.3,15.1,29.8,22c-1.4,6.5-28,4-37.9,3.3l8.7,6.3c1.1,0.8,1.6,2.2,1.1,3.5
		c-0.5,1.4-1.8,2.3-3.3,2.1l-11.6-1.3C880.5,294.8,876.1,293.3,872.3,290.7z"/>
	<path class="st8" d="M499.4,274.3L499.4,274.3c0,0-20.9-3.3-20.9-7.4V251h41.7v15.9C520.2,271,499.4,274.3,499.4,274.3z"/>
	<path class="st2" d="M478.5,253.3c0,0,8.6,8.4,20.9,8c12.5-0.5,20.9-8.7,20.9-8.7s-8.7,7.6-20.6,7.6S478.5,253.3,478.5,253.3z"/>
	<path class="st2" d="M542.2,169c-2.1-7.7-7.1-18.6-25-26.7c-29.5-13.4-49.4,15.1-49.4,15.1c-7.9-0.8-12.2,2.2-14,9.4
		c-1.5,6.1,0.5,18.1,1.6,22.6l5.9,31.1l5.7-27.6c5.6-18.2,14-25.6,14-25.6l26.9-2.1l28.6,52.7l5.6-31.2c0.7-4,1-8,0.8-12
		C542.8,172.4,542.6,170.4,542.2,169z"/>
	<path class="st8" d="M535.9,211.5c0,0,3.5-5.6,10.8-2.8c7.2,2.7,4,20.3-6.9,22.6c0,0-3.9,0.8-6.9-1.8
		C532.8,229.4,535.5,216.4,535.9,211.5z"/>
	<path class="st9" d="M545.2,214.9c0,0-6.1-2-10.4,6.9"/>
	<path class="st9" d="M537.8,217.4c0,0,6.6,3.5,2.2,8.8"/>
	<path class="st8" d="M461.8,211.5c0,0-3.5-5.6-10.8-2.8c-7.2,2.7-4,20.3,6.9,22.6c0,0,3.9,0.8,6.9-1.8
		C464.9,229.4,462.2,216.4,461.8,211.5z"/>
	<path class="st9" d="M452.5,214.9c0,0,6.1-2,10.4,6.9"/>
	<path class="st9" d="M459.9,217.4c0,0-6.6,3.5-2.2,8.8"/>
	<path class="st8" d="M536.6,194.8c0,10.6-1,32.8-7.6,46c-6.1,12.4-16.2,19-29.5,19.4c-13.3,0.4-23.2-4.7-31.1-20.8
		c-7.9-16-7.5-44.4-7.5-44.4s0-37.9,37.4-37.9C537.8,157.1,536.6,194.8,536.6,194.8z"/>
	<path class="st2" d="M533.2,161.9c-1,0.3-32.4-8.4-32.4-8.4l-27.6,8.4l0,0c-24.3,6.6-13.6,29.6-13.6,29.6
		c10-5.1,9.3-15.6,11.1-23.2c4.4,5.8,21.3,16.4,42.2,16c21.3-0.4,23.7-8.7,23.7-8.7S534.2,161.5,533.2,161.9z"/>
	<g>
		<path class="st9" d="M496.1,213.2v16.9c0,0.4,0.1,0.7,0.2,1.1c0.5,1.3,2,1.9,3.4,1.6l2.9-0.8"/>
		<circle id="nose1_1_" cx="498" cy="206" r="0.7"/>
		<circle id="nose0_1_" cx="498" cy="201.1" r="0.7"/>
		<circle id="nose3_1_" cx="498" cy="216.7" r="0.7"/>
		<circle id="rightNose0_1_" cx="488.9" cy="220.5" r="0.7"/>
		<circle id="rightNose1_1_" cx="493.3" cy="220.5" r="0.7"/>
		<circle id="nose2_1_" cx="498" cy="210.6" r="0.7"/>
		<circle id="nose4_1_" cx="498" cy="221.1" r="0.7"/>
		<circle id="leftNose0_1_" cx="506.8" cy="220.5" r="0.7"/>
		<circle id="leftNose1_1_" cx="502.8" cy="220.5" r="0.7"/>
	</g>
	<g>
		<path class="st2" d="M485.1,206.5c0,2-1.6,3.5-3.5,3.5c-2,0-3.5-1.6-3.5-3.5s1.6-3.5,3.5-3.5S485.1,204.6,485.1,206.5z"/>
		<circle id="rightEye0_1_" cx="473.4" cy="197.1" r="0.7"/>
		<circle id="rightEye1_1_" cx="477.8" cy="194" r="0.7"/>
		<circle id="rightEye5_1_" cx="477.8" cy="199.1" r="0.7"/>
		<circle id="rightEye2_1_" cx="483.2" cy="194" r="0.7"/>
		<circle id="rightEye3_1_" cx="487.6" cy="197.6" r="0.7"/>
		<circle id="rightEye4_1_" cx="483.2" cy="198.4" r="0.7"/>
	</g>
	<g>
		<path class="st2" d="M488.7,198l0.1-6.7l-12.5,0.2c-1.6,0-3.1,0.6-4.3,1.6l-7.2,6l10.5-1.6L488.7,198z"/>
		<circle id="rightBrow1_1_" cx="471.6" cy="187" r="0.7"/>
		<circle id="rightBrow4_1_" cx="491.3" cy="189.6" r="0.7"/>
		<circle id="rightBrow3_1_" cx="483" cy="186.2" r="0.7"/>
		<circle id="rightBrow0_1_" cx="468.2" cy="190.2" r="0.7"/>
		<circle id="rightBrow2_1_" cx="476.8" cy="186.2" r="0.7"/>
	</g>
	<g>
		<path class="st2" d="M510.3,206.5c0,2,1.6,3.5,3.5,3.5c1.9,0,3.5-1.6,3.5-3.5s-1.6-3.5-3.5-3.5S510.3,204.6,510.3,206.5z"/>
		<circle id="leftEye0_1_" cx="523.9" cy="197.1" r="0.7"/>
		<circle id="leftEye1_1_" cx="519.5" cy="194" r="0.7"/>
		<circle id="leftEye5_1_" cx="519.5" cy="199.1" r="0.7"/>
		<circle id="leftEye2_1_" cx="514.2" cy="194" r="0.7"/>
		<circle id="leftEye3_1_" cx="509.8" cy="197.6" r="0.7"/>
		<circle id="leftEye4_1_" cx="514.2" cy="198.4" r="0.7"/>
	</g>
	<g>
		<path class="st2" d="M506.7,198l-0.1-6.7l12.5,0.2c1.6,0,3.1,0.6,4.3,1.6l7.2,6l-10.5-1.6L506.7,198z"/>
		<circle id="leftBrow1_1_" cx="525.5" cy="187.4" r="0.7"/>
		<circle id="leftBrow4_1_" cx="505.5" cy="189.2" r="0.7"/>
		<circle id="leftBrow3_1_" cx="514" cy="186.5" r="0.7"/>
		<circle id="leftBrow0_1_" cx="528.9" cy="189.8" r="0.7"/>
		<circle id="leftBrow2_1_" cx="520.2" cy="186.1" r="0.7"/>
	</g>
	<g>
		<path class="st10" d="M493.3,242.8c0,0,4.1,1.3,9.2,0"/>
		<path class="st11" d="M486.8,234.7h22.8c0,0-4,6.1-12.4,5.6C488.8,239.9,486.8,234.7,486.8,234.7z"/>
		<circle id="upperLipBottomMid" cx="497.9" cy="234.7" r="0.7"/>
		<circle id="rightUpperLipBottom1" cx="494.4" cy="234.7" r="0.7"/>
		<path id="rightMiddleLip_2_" d="M486.9,234c0.3,0,0.7,0.3,0.7,0.7s-0.3,0.7-0.7,0.7c-0.3,0-0.7-0.3-0.7-0.7
			C486.2,234.3,486.6,234,486.9,234z"/>
		<circle id="lowerLipTopMid" cx="497.9" cy="237.4" r="0.7"/>
		<circle id="rightLowerLipTop0" cx="494.4" cy="236.9" r="0.7"/>
		<circle id="leftUpperLipBottom1" cx="501.4" cy="234.7" r="0.7"/>
		<path id="leftMiddleLip_2_" d="M509.6,233.9c0.3,0,0.7,0.3,0.7,0.7s-0.3,0.7-0.7,0.7c-0.3,0-0.7-0.3-0.7-0.7
			C508.9,234.3,509.2,233.9,509.6,233.9z"/>
		<circle id="leftLowerLipTop0" cx="501.4" cy="236.9" r="0.7"/>
		<circle id="lowerLipBottomMid" cx="497.9" cy="243.4" r="0.7"/>
		<circle id="rightLowerLipBottom1" cx="494.4" cy="242.9" r="0.7"/>
		<circle id="leftLowerLipBottom1" cx="501.4" cy="242.9" r="0.7"/>
	</g>
	<path class="st2" d="M503,228.3c1,0.7,2.2,1.3,3.4,1.8c1.2,0.5,2.4,0.9,3.7,1.2c1.3,0.3,2.6,0.4,3.9,0.5c1.3,0,2.6-0.2,3.9-0.4l0,0
		c0.2,0,0.4,0.1,0.4,0.3s-0.1,0.3-0.2,0.4c-1.3,0.3-2.7,0.6-4.1,0.7c-1.4,0.1-2.8,0-4.1-0.2c-1.4-0.2-2.7-0.6-4-1
		c-1.3-0.5-2.5-1-3.8-1.8c-0.4-0.2-0.5-0.7-0.3-1.1C502,228.1,502.5,228,503,228.3C502.9,228.2,503,228.2,503,228.3L503,228.3z"/>
	<path class="st2" d="M494.9,229.6c-1.3,0.8-2.5,1.3-3.8,1.8s-2.6,0.8-4,1s-2.7,0.3-4.1,0.2c-1.4,0-2.7-0.3-4.1-0.7
		c-0.2,0-0.3-0.2-0.2-0.4c0-0.2,0.2-0.3,0.4-0.2l0,0c1.3,0.3,2.6,0.5,3.9,0.4c1.3,0,2.6-0.2,3.9-0.5s2.5-0.7,3.7-1.2
		s2.4-1.1,3.4-1.8l0,0c0.4-0.3,0.9-0.2,1.1,0.2C495.4,228.8,495.3,229.3,494.9,229.6L494.9,229.6z"/>
</g>
<g id="skeleton_1_">
	<polygon class="st12" points="421.3,272.2 441.2,456.8 557.6,456.8 573,272.2 	"/>
	<polyline class="st12" points="423.7,272.2 289.3,272.2 126,278.5 	"/>
	<polyline class="st12" points="573,272.2 710.6,271.8 873.9,278.2 	"/>
	<polyline class="st12" points="441.2,456.8 449.7,670.2 449.7,878.2 	"/>
	<polyline class="st12" points="557.6,456.8 559.7,670.2 559.7,878.2 	"/>
	<polyline class="st12" points="498.7,158.9 481.9,161 471.3,169.1 464,181 461.9,188.9 461.2,198.8 461.2,206.9 461.9,225.3 
		467.7,242.2 477.5,252.8 486,258.5 498.7,261.2 511.2,258.8 519.7,253.1 529.5,242.5 535.3,225.5 536,207.2 536,199.1 535.3,189.2 
		533.2,181.4 526.2,169.1 515.5,161 498.7,158.9 	"/>
	<polyline class="st12" points="468.2,190.2 471.6,187 476.8,186.2 483,186.2 491.3,189.6 	"/>
	<polygon class="st12" points="473.4,197.1 477.8,194 483.2,194 487.6,197.6 483.2,198.4 477.8,199.1 	"/>
	<polyline class="st12" points="488.9,220.5 493.3,220.5 498,221.1 498,216.7 498,210.6 498,206 498,201.1 	"/>
	<polyline class="st12" points="528.8,189.8 525.4,187.4 520,186.1 513.8,186.5 505.4,189.2 	"/>
	<polygon class="st12" points="523.8,197.1 519.3,194 513.9,194 509.6,197.6 513.9,198.4 519.3,199.1 	"/>
	<polyline class="st12" points="506.8,220.5 502.6,220.5 498,221.1 	"/>
	<polygon class="st12" points="483.9,231.2 489.7,228.3 495.2,227.4 498.7,228.1 502.2,227.4 507.7,228.3 513.5,231.2 508.1,236.5 
		502.1,238.9 498.7,239.3 495.2,238.9 489.3,236.5 	"/>
	<polyline class="st12" points="483.9,231.2 486.9,231.4 495.4,230.8 498.7,231.2 502.1,230.8 510.5,231.4 513.5,231.2 	"/>
	<polyline class="st12" points="483.9,231.2 486.9,231.4 495.4,233.2 498.7,233.9 502.1,233.2 510.5,231.4 513.5,231.2 	"/>
	<circle id="rightShoulder_1_" cx="421.3" cy="272.2" r="8.2"/>
	<circle id="rightElbow_1_" cx="286.2" cy="272.2" r="8.2"/>
	<circle id="rightWrist_1_" cx="126" cy="278.5" r="8.2"/>
	<circle id="rightHip_1_" cx="441.2" cy="456.8" r="8.2"/>
	<circle id="rightKnee_1_" cx="449.8" cy="669.9" r="8.2"/>
	<circle id="rightAnkle_1_" cx="449.8" cy="877.9" r="8.2"/>
	<circle id="leftElbow_1_" cx="707" cy="271.8" r="8.2"/>
	<circle id="leftWrist_1_" cx="873.9" cy="278.2" r="8.2"/>
	<circle id="leftHip_1_" cx="557.6" cy="457.2" r="8.2"/>
	<circle id="leftKnee_1_" cx="559.8" cy="669.9" r="8.2"/>
	<circle id="leftAnkle_1_" cx="559.8" cy="877.9" r="8.2"/>
	<circle id="rightEye0_2_" cx="473.4" cy="197.1" r="0.7"/>
	<circle id="rightBrow1_2_" cx="471.6" cy="187" r="0.7"/>
	<circle id="rightBrow4_2_" cx="491.3" cy="189.6" r="0.7"/>
	<circle id="nose1_2_" cx="498" cy="206" r="0.7"/>
	<circle id="rightBrow3_2_" cx="483" cy="186.2" r="0.7"/>
	<circle id="rightEye1_2_" cx="477.8" cy="194" r="0.7"/>
	<circle id="rightBrow0_2_" cx="468.2" cy="190.2" r="0.7"/>
	<circle id="rightBrow2_2_" cx="476.8" cy="186.2" r="0.7"/>
	<circle id="rightEye5_2_" cx="477.8" cy="199.1" r="0.7"/>
	<circle id="rightEye2_2_" cx="483.2" cy="194" r="0.7"/>
	<circle id="rightEye3_2_" cx="487.6" cy="197.6" r="0.7"/>
	<circle id="nose0_2_" cx="498" cy="201.1" r="0.7"/>
	<circle id="nose3_2_" cx="498" cy="216.7" r="0.7"/>
	<circle id="rightNose0_2_" cx="488.9" cy="220.5" r="0.7"/>
	<circle id="rightMouthCorner_1_" cx="483.9" cy="231.2" r="0.7"/>
	<circle id="rightNose1_2_" cx="493.3" cy="220.5" r="0.7"/>
	<circle id="rightUpperLipTop0_1_" cx="489.7" cy="228.3" r="0.7"/>
	<circle id="nose2_2_" cx="498" cy="210.6" r="0.7"/>
	<circle id="nose4_2_" cx="498" cy="221.1" r="0.7"/>
	<circle id="upperLipTopMid_1_" cx="498.7" cy="228.1" r="0.7"/>
	<circle id="rightUpperLipTop1_1_" cx="495.2" cy="227.4" r="0.7"/>
	<path id="rightMiddleLip_1_" d="M486.9,230.8c0.3,0,0.7,0.3,0.7,0.7c0,0.3-0.3,0.7-0.7,0.7c-0.3,0-0.7-0.3-0.7-0.7
		S486.6,230.8,486.9,230.8z"/>
	<circle id="lowerLipBottomMid_1_" cx="498.7" cy="239.3" r="0.7"/>
	<circle id="upperLipBottomMid_2_" cx="498.7" cy="231.2" r="0.7"/>
	<circle id="lowerLipTopMid_1_" cx="498.7" cy="233.8" r="0.7"/>
	<circle id="rightUpperLipBottom1_2_" cx="495.4" cy="230.8" r="0.7"/>
	<circle id="rightLowerLipTop0_1_" cx="495.4" cy="233.2" r="0.7"/>
	<circle id="rightLowerLipBottom1_1_" cx="495.2" cy="238.9" r="0.7"/>
	<circle id="rightLowerLipBottom0_1_" cx="489.3" cy="236.5" r="0.7"/>
	<circle id="rightEye4_2_" cx="483.2" cy="198.4" r="0.7"/>
	<circle id="jawMid_1_" cx="498.7" cy="261.2" r="0.7"/>
	<circle id="rightJaw7_1_" cx="486" cy="258.5" r="0.7"/>
	<circle id="rightJaw6_1_" cx="477.5" cy="252.8" r="0.7"/>
	<circle id="rightJaw5_1_" cx="467.7" cy="242.2" r="0.7"/>
	<circle id="rightJaw4_1_" cx="461.9" cy="225.3" r="0.7"/>
	<circle id="rightJaw3_1_" cx="461.2" cy="206.9" r="0.7"/>
	<circle id="rightJaw2_1_" cx="461.2" cy="198.8" r="0.7"/>
	<circle id="rightJaw1_1_" cx="461.9" cy="188.9" r="0.7"/>
	<circle id="rightJaw0_1_" cx="464" cy="181" r="0.7"/>
	<circle id="topMid_1_" cx="498.9" cy="158.9" r="0.7"/>
	<circle id="leftTop0_1_" cx="515.5" cy="161" r="0.7"/>
	<circle id="leftTop1_1_" cx="526.2" cy="169.1" r="0.7"/>
	<circle id="leftEye0_2_" cx="523.9" cy="197.1" r="0.7"/>
	<circle id="leftBrow1_2_" cx="525.5" cy="187.4" r="0.7"/>
	<circle id="leftBrow4_2_" cx="505.5" cy="189.2" r="0.7"/>
	<circle id="leftBrow3_2_" cx="514" cy="186.5" r="0.7"/>
	<circle id="leftEye1_2_" cx="519.5" cy="194" r="0.7"/>
	<circle id="leftBrow0_2_" cx="528.9" cy="189.8" r="0.7"/>
	<circle id="leftBrow2_2_" cx="520.2" cy="186.1" r="0.7"/>
	<circle id="leftEye5_2_" cx="519.5" cy="199.1" r="0.7"/>
	<circle id="leftEye2_2_" cx="514.2" cy="194" r="0.7"/>
	<circle id="leftEye3_2_" cx="509.8" cy="197.6" r="0.7"/>
	<circle id="leftNose0_2_" cx="506.8" cy="220.5" r="0.7"/>
	<circle id="leftMouthCorner_1_" cx="513.5" cy="231.2" r="0.7"/>
	<circle id="leftNose1_2_" cx="502.8" cy="220.5" r="0.7"/>
	<circle id="leftUpperLipTop0_1_" cx="507.7" cy="228.3" r="0.7"/>
	<circle id="leftUpperLipTop1_1_" cx="502.2" cy="227.4" r="0.7"/>
	<path id="leftMiddleLip_1_" d="M510.5,230.8c0.3,0,0.7,0.3,0.7,0.7c0,0.3-0.3,0.7-0.7,0.7c-0.3,0-0.7-0.3-0.7-0.7
		S510.1,230.8,510.5,230.8z"/>
	<circle id="leftUpperLipBottom1_2_" cx="502.1" cy="230.8" r="0.7"/>
	<circle id="leftLowerLipTop0_1_" cx="502.1" cy="233.2" r="0.7"/>
	<circle id="leftLowerLipBottom1_1_" cx="502.2" cy="238.9" r="0.7"/>
	<circle id="leftLowerLipBottom0_1_" cx="508.1" cy="236.5" r="0.7"/>
	<circle id="leftEye4_2_" cx="514.2" cy="198.4" r="0.7"/>
	<circle id="leftJaw7_1_" cx="511.2" cy="258.8" r="0.7"/>
	<circle id="leftJaw6_1_" cx="519.7" cy="253.1" r="0.7"/>
	<circle id="leftJaw5_1_" cx="529.5" cy="242.5" r="0.7"/>
	<circle id="leftJaw4_1_" cx="535.3" cy="225.5" r="0.7"/>
	<circle id="leftJaw3_1_" cx="536" cy="207.2" r="0.7"/>
	<circle id="leftJaw2_1_" cx="536" cy="199.1" r="0.7"/>
	<circle id="leftJaw1_1_" cx="535.3" cy="189.2" r="0.7"/>
	<circle id="leftJaw0_1_" cx="533.2" cy="181.4" r="0.7"/>
	<circle id="rightTop0_1_" cx="482" cy="161" r="0.7"/>
	<circle id="rightTop1_1_" cx="471.3" cy="169.1" r="0.7"/>
	<circle id="leftShoulder_1_" cx="573" cy="272.2" r="8.2"/>
</g>
</svg>
